<?xml version="1.0" encoding="iso-8859-1"?>
<!-- Uploaded to: SVG Repo, www.svgrepo.com, Generator: SVG Repo Mixer Tools -->
<svg height="800px" width="800px" version="1.1" id="Layer_1" xmlns="http://www.w3.org/2000/svg" xmlns:xlink="http://www.w3.org/1999/xlink" 
	 viewBox="0 0 512 512" xml:space="preserve">
<path style="fill:#1C74BB;" d="M150.069,79.448H35.31C15.809,79.448,0,95.257,0,114.759v282.483c0,19.501,15.809,35.31,35.31,35.31
	h114.759c58.411,0,105.931-47.52,105.931-105.931c0-27.105-10.233-51.865-27.039-70.621C245.767,237.245,256,212.484,256,185.379
	C256,126.968,208.48,79.448,150.069,79.448z M150.069,361.931H70.621V291.31h79.448c19.47,0,35.31,15.84,35.31,35.31
	S169.539,361.931,150.069,361.931z M150.069,220.69H70.621v-70.621h79.448c19.47,0,35.31,15.84,35.31,35.31
	S169.539,220.69,150.069,220.69z"/>
<path style="fill:#035FA1;" d="M26.483,397.241V114.759c0-19.501,15.809-35.31,35.31-35.31H35.31C15.809,79.448,0,95.257,0,114.759
	v282.483c0,19.501,15.809,35.31,35.31,35.31h26.483C42.292,432.552,26.483,416.743,26.483,397.241z"/>
<path style="fill:#E5E5E5;" d="M317.793,150.069h132.414c19.501,0,35.31-15.809,35.31-35.31s-15.809-35.31-35.31-35.31H317.793
	c-19.501,0-35.31,15.809-35.31,35.31S298.292,150.069,317.793,150.069z"/>
<path style="fill:#CCCCCC;" d="M459.034,132.414H326.621c-19.501,0-35.31-15.809-35.31-35.31c0-2.162,0.205-4.275,0.577-6.329
	c-5.834,6.298-9.405,14.722-9.405,23.985c0,19.501,15.809,35.31,35.31,35.31h132.414c17.34,0,31.75-12.502,34.733-28.981
	C478.49,128.051,469.273,132.414,459.034,132.414z"/>
<path style="fill:#1C74BB;" d="M512,291.31c0-68.146-55.441-123.586-123.586-123.586S264.828,223.165,264.828,291.31v17.655
	c0,68.146,55.441,123.586,123.586,123.586c33.475,0,64.818-13.166,88.255-37.074c13.652-13.926,13.43-36.281-0.495-49.933
	c-13.923-13.653-36.283-13.43-49.933,0.495c-10.046,10.248-23.479,15.891-37.826,15.891c-23.018,0-42.653-14.759-49.94-35.31H476.69
	C496.191,326.621,512,310.812,512,291.31z M348.968,256c9.705-10.83,23.794-17.655,39.446-17.655S418.155,245.17,427.86,256H348.968
	z"/>
<path style="fill:#035FA1;" d="M406.069,423.724c-68.146,0-123.586-55.441-123.586-123.586v-17.655
	c0-44.833,23.999-84.164,59.822-105.829c-45.373,18.312-77.478,62.803-77.478,114.657v17.655
	c0,68.146,55.441,123.586,123.586,123.586c22.905,0,44.81-6.167,63.869-17.719C437.8,420.664,422.184,423.724,406.069,423.724z"/>
</svg>