<?xml version="1.0" encoding="UTF-8"?>
<svg xmlns="http://www.w3.org/2000/svg" version="1.1" viewBox="0 0 841.89 450.57">
  <defs>
    <style>
      .cls-1 {
        fill: #f5a800;
      }

      .cls-2 {
        fill: #4e738a;
      }
    </style>
  </defs>
  <!-- Generator: Adobe Illustrator 28.7.2, SVG Export Plug-In . SVG Version: 1.2.0 Build 154)  -->
  <g>
    <g id="Layer_1">
      <g>
        <g>
          <g>
            <path class="cls-2" d="M20.36,404.05v-98.57l26.13-30.59v129.16h-26.13Z"/>
            <path class="cls-2" d="M78.92,294.19c9.57,0,14.35,3.68,14.35,11.02s-4.78,11.04-14.35,11.04-14.36-3.67-14.36-11.04,4.79-11.02,14.36-11.02ZM65.39,404.05v-77.42h26.11v77.42h-26.11Z"/>
            <path class="cls-2" d="M169.89,326.63h14.03v64.45c0,27.09-13.86,40.64-41.63,40.64-9.77,0-19.57-2.13-29.35-6.37v-14.9c8.59,4.26,18.01,6.39,28.23,6.39,5.47,0,9.47-1.25,11.94-3.75,3.01-3,4.52-8.15,4.52-15.46v-9.13c-7.65,7.34-15.26,11.02-22.9,11.02-18.84,0-28.24-12.5-28.24-37.49,0-12.4,2.47-21.45,7.42-27.15,5.9-6.88,16.18-10.3,30.82-10.3,1.92,0,5.74.31,11.46,1.01,5.7.69,10.28,1.04,13.71,1.04ZM134.15,362.12c0,6.09.43,10.41,1.26,12.92,1.62,4.75,5.02,7.12,10.15,7.12,3.13,0,7.13-1.94,12.06-5.82v-35.12c-1.82-1.75-5.83-2.62-12.06-2.62-7.59,0-11.41,7.84-11.41,23.53Z"/>
            <path class="cls-2" d="M276.87,404.05h-26.04v-52.89c0-6.52-3.6-9.75-10.8-9.75-4.45,0-9.21,1.59-14.39,4.8v57.84h-26.22v-103.45h24.69v33.97c7.43-6.25,15.33-9.38,23.71-9.38s15.73,1.83,21.06,5.52c5.32,3.68,7.99,8.73,7.99,15.11v58.23Z"/>
            <path class="cls-2" d="M341.42,405.33c-7.12.39-11.76.59-13.92.59-12.47,0-20.79-2.13-24.89-6.4-3.56-3.68-5.33-10.81-5.33-21.36v-37.48h-12.17v-14.04h12.17v-16.16l26.22-6.55v22.71h20.01v14.04h-20.01v37.55c0,4.74.72,8.13,2.19,10.18,1.44,2.02,4.16,3.04,8.13,3.04,1.39,0,3.91-.31,7.6-.91v14.79Z"/>
            <path class="cls-2" d="M431.28,404.05h-26.05v-52.89c0-6.52-3.58-9.75-10.83-9.75-4.39,0-9.19,1.59-14.35,4.8v57.84h-26.23v-103.45h24.68v33.97c7.42-6.25,15.34-9.38,23.73-9.38s15.73,1.83,21.07,5.52c5.3,3.68,7.98,8.73,7.98,15.11v58.23Z"/>
            <path class="cls-2" d="M484.74,324.57c28.85,0,43.26,13.55,43.26,40.67s-14.42,40.67-43.26,40.67-43.38-13.57-43.38-40.67,14.45-40.67,43.38-40.67ZM501.85,365.21c0-8.33-.81-14.25-2.41-17.71-2.48-5.33-7.35-8-14.62-8s-12.37,2.67-14.84,8c-1.6,3.46-2.43,9.39-2.43,17.71s.83,14.3,2.43,17.7c2.47,5.42,7.4,8.12,14.84,8.12s12.14-2.7,14.62-8.12c1.6-3.41,2.41-9.29,2.41-17.7Z"/>
            <path class="cls-2" d="M536.94,326.63h26.13v52.87c0,6.47,3.55,9.72,10.68,9.72,4.52,0,9.29-1.66,14.34-4.95v-57.65h26.3v77.42h-24.84v-8.13c-7.33,6.22-15.18,9.38-23.58,9.38s-15.71-1.85-21.02-5.53c-5.32-3.66-8.01-8.69-8.01-15.08v-58.06Z"/>
            <path class="cls-2" d="M626.7,382.11c7.02,6.22,15.08,9.34,24.22,9.34,5.68,0,9.74-.91,12.09-2.74,1.3-1.08,1.93-2.2,1.93-3.37,0-3.96-3.45-7.12-10.33-9.45-10.95-3.78-17.35-6.21-19.2-7.27-6.87-4.25-10.28-10.64-10.28-19.19,0-6.21,2.07-11.48,6.27-15.84,5.79-6.03,14.93-9.01,27.43-9.01,9.36,0,17.62,1.64,24.84,4.92v15.84c-5.17-4.35-13.74-6.52-25.72-6.52-6.92,0-10.33,2.57-10.33,7.7,0,2.61,3.52,4.88,10.66,6.81,9.69,2.81,16.26,5.32,19.73,7.56,7.09,4.53,10.65,11.29,10.65,20.19,0,16.55-11.85,24.84-35.5,24.84-9.68,0-18.5-2.38-26.47-7.13v-16.67Z"/>
            <path class="cls-2" d="M693.5,365.25c0-13.66,2.96-23.74,8.9-30.23,6.35-6.96,16.43-10.44,30.2-10.44,15.83,0,26.4,3.91,31.69,11.76,4.29,6.31,6.46,18.14,6.46,35.49h-49.54c0,7.62,1.26,12.71,3.84,15.32,2.57,2.59,7.02,3.89,13.35,3.89,10.21,0,19.88-2.33,29.01-7.04v14.79c-10.43,4.75-21.32,7.13-32.61,7.13-27.54,0-41.32-13.57-41.32-40.67ZM733.13,339.5c-4.94,0-8.35,2.14-10.17,6.39-1.18,2.8-1.75,7.11-1.75,12.94h23.71c0-7.06-.27-11.39-.81-12.94-1.39-4.24-5.05-6.39-10.98-6.39Z"/>
          </g>
          <g>
            <path class="cls-2" d="M772.59,282.36h12.87v3.33h-8.83v6.14h8.21v3.31h-8.21v9.46h-4.05v-22.24Z"/>
            <path class="cls-2" d="M787.92,302.38l11.37-16.57v-.09h-10.42v-3.36h15.68v2.37l-11.23,16.41v.11h11.39v3.36h-16.79v-2.23Z"/>
            <path class="cls-2" d="M820.53,294.72h-8.36v6.57h9.37v3.32h-13.46v-22.24h12.96v3.33h-8.86v5.74h8.36v3.29Z"/>
          </g>
        </g>
        <g>
          <g>
            <path class="cls-1" d="M423.04,303.36c-2.24,1.01-6.04,1.89-10.97,1.89-10.95,0-17.93-6.68-17.93-17.61,0-8.8,3.74-16.24,9.86-20.74,4.37-3.3,9.63-4.99,15.69-4.99,4.61,0,7.99,1.12,9.16,1.88l-2.14,5.86c-1.35-.75-4.23-1.49-7.91-1.49-3.93,0-7.85,1.37-10.69,3.94-3.74,3.24-6.13,8.55-6.13,14.62,0,7.11,3.62,12.35,11.96,12.35,3.06,0,6.22-.55,8.4-1.55l.7,5.84Z"/>
            <path class="cls-1" d="M444.46,305.31c-10.93,0-16.56-8-16.56-17.36,0-7.48,2.81-15.36,7.88-20.22,3.73-3.62,9.05-5.88,14.79-5.88,11.19,0,16.48,7.86,16.48,17.43,0,7.5-2.68,15.22-7.55,20.03-3.81,3.75-8.92,6.01-14.97,6.01h-.06ZM445.51,299.19c3.05,0,5.96-1.31,8.19-3.57,3.59-3.6,5.66-10.8,5.66-16.1,0-5.57-1.93-11.55-9.67-11.55-3.24,0-6.14,1.39-8.36,3.62-3.62,3.68-5.72,10.54-5.72,15.99,0,6.37,2.78,11.61,9.85,11.61h.07Z"/>
            <path class="cls-1" d="M469.05,304.61l7.98-42.06h8.38l7.34,19.54c1.81,5.11,2.82,8.99,3.75,13.16h.2c.18-4.12.74-8.18,1.87-14.24l3.49-18.46h6.8l-7.98,42.06h-7.42l-7.57-19.92c-1.91-5.48-2.98-8.92-3.97-13.55l-.22.06c-.43,4-1.28,9.18-2.48,15.44l-3.37,17.97h-6.8Z"/>
            <path class="cls-1" d="M510.68,296.32c2.46,1.56,5.84,2.68,9.51,2.68,4.04,0,7.75-2.2,7.75-6.23,0-2.77-1.83-4.63-5.87-6.82-4.88-2.62-8.56-5.94-8.56-10.98,0-8.07,7.01-13.06,15.47-13.06,4.67,0,7.69,1.12,9.35,2.14l-2.33,5.98c-1.39-.73-4.2-1.93-7.64-1.86-4.63,0-7.25,2.69-7.25,5.49s2.38,4.63,6.31,6.82c5.12,2.67,8.19,6.04,8.19,11.16,0,8.43-6.88,13.62-16.22,13.62-5.14-.07-9.32-1.49-11.22-2.95l2.51-5.98Z"/>
            <path class="cls-1" d="M554.83,262.55l-4.68,24.52c-.3,1.62-.48,3.37-.48,5.12,0,4.31,2.55,7,6.85,7,5.19,0,8.82-3.44,10.44-12.05l4.68-24.58h7.31l-4.71,24.46c-2.43,12.68-8.29,18.3-18.66,18.3-7.84.06-13.16-4.12-13.16-12.94,0-1.81.24-3.92.54-5.86l4.58-23.96h7.29Z"/>
            <path class="cls-1" d="M587.3,262.55h7.25l-6.75,35.69h16.49l-1.18,6.37h-23.78l7.98-42.06Z"/>
            <path class="cls-1" d="M616.53,268.9h-11.64l1.26-6.35h30.65l-1.22,6.35h-11.76l-6.73,35.71h-7.3l6.74-35.71Z"/>
            <path class="cls-1" d="M640,292.62l-5.74,11.99h-7.74l21.01-42.06h9.12l5.33,42.06h-7.57l-1.24-11.99h-13.17ZM652.8,287.01l-1.19-10.43c-.23-2.31-.5-5.55-.67-8.06h-.14c-1.12,2.56-2.19,5.51-3.42,7.99l-5.08,10.5h10.5Z"/>
            <path class="cls-1" d="M666.59,304.61l8.01-42.06h8.39l7.34,19.54c1.81,5.11,2.81,8.99,3.75,13.16h.19c.18-4.12.75-8.18,1.88-14.24l3.48-18.46h6.8l-8,42.06h-7.43l-7.54-19.92c-1.95-5.48-3.02-8.92-4.02-13.55l-.17.06c-.42,4-1.31,9.18-2.49,15.44l-3.38,17.97h-6.82Z"/>
            <path class="cls-1" d="M721.19,268.9h-11.64l1.25-6.35h30.66l-1.23,6.35h-11.76l-6.74,35.71h-7.3l6.76-35.71Z"/>
            <path class="cls-1" d="M739.8,296.32c2.42,1.56,5.79,2.68,9.49,2.68,4.06,0,7.72-2.2,7.72-6.23,0-2.77-1.8-4.63-5.87-6.82-4.85-2.62-8.54-5.94-8.54-10.98,0-8.07,6.99-13.06,15.48-13.06,4.67,0,7.66,1.12,9.36,2.14l-2.37,5.98c-1.38-.73-4.19-1.93-7.62-1.86-4.63,0-7.23,2.69-7.23,5.49s2.37,4.63,6.29,6.82c5.13,2.67,8.18,6.04,8.18,11.16,0,8.43-6.87,13.62-16.24,13.62-5.12-.07-9.31-1.49-11.19-2.95l2.52-5.98Z"/>
          </g>
          <g>
            <polygon class="cls-1" points="385.53 171.37 573.4 228.52 821.45 76.63 633.57 19.44 385.53 171.37"/>
            <polygon class="cls-1" points="189.12 214.05 267.04 263.32 385.53 171.37 307.64 122.08 189.12 214.05"/>
            <polygon class="cls-1" points="101.37 233.13 131.13 272.67 189.12 214.05 159.36 174.51 101.37 233.13"/>
            <polygon class="cls-1" points="64.15 241.19 72.9 271.29 101.33 233.13 92.54 203.03 64.15 241.19"/>
            <polygon class="cls-1" points="47.18 244.91 46.49 274.89 64.15 241.19 64.53 212.2 47.18 244.91"/>
          </g>
        </g>
      </g>
    </g>
  </g>
</svg>